<svg xmlns="http://www.w3.org/2000/svg" aria-hidden="true" style="position:absolute;width:0;height:0;overflow:hidden">
  <defs>
    <symbol id="social-facebook" viewBox="0 0 32 32">
      <path d="M18.425 10.801h1.462V8.328a20.221 20.221 0 0 0-2.131-.109c-2.116 0-3.562 1.291-3.562 3.656v2.038h-2.388v2.769h2.388v7.093h2.862v-7.093h2.38l.358-2.769h-2.738v-1.766c0-.817.218-1.346 1.369-1.346z"/>
      <path stroke-width=".8" d="M4.8.4h22.4a4.4 4.4 0 0 1 4.4 4.4v22.4a4.4 4.4 0 0 1-4.4 4.4H4.8a4.4 4.4 0 0 1-4.4-4.4V4.8A4.4 4.4 0 0 1 4.8.4z"/>
    </symbol>
    <symbol id="social-instagram" viewBox="0 0 32 32">
      <path d="M19.991 11.115a.902.902 0 0 0-.828.553.892.892 0 0 0 .194.977.892.892 0 0 0 .977.194.895.895 0 0 0-.343-1.724zm3.435 1.807a5.646 5.646 0 0 0-.343-1.814 3.69 3.69 0 0 0-.866-1.322 3.518 3.518 0 0 0-1.322-.859 5.462 5.462 0 0 0-1.814-.351c-.791-.045-1.045-.045-3.076-.045s-2.285 0-3.076.045a5.462 5.462 0 0 0-1.814.351 3.57 3.57 0 0 0-1.322.859c-.383.37-.676.822-.859 1.322a5.462 5.462 0 0 0-.351 1.814c-.045.791-.045 1.045-.045 3.076s0 2.285.045 3.076c.013.62.132 1.234.351 1.814.182.5.476.952.859 1.322a3.57 3.57 0 0 0 1.322.859c.58.219 1.194.338 1.814.351.791.045 1.045.045 3.076.045s2.285 0 3.076-.045a5.462 5.462 0 0 0 1.814-.351c.5-.182.952-.476 1.322-.859.382-.371.678-.823.866-1.322a5.65 5.65 0 0 0 .343-1.814c0-.791.045-1.045.045-3.076s0-2.285-.045-3.076zm-1.344 6.063a4.167 4.167 0 0 1-.254 1.389 2.286 2.286 0 0 1-.56.859 2.373 2.373 0 0 1-.859.56 4.193 4.193 0 0 1-1.389.254c-.747.037-1.023.045-2.987.045s-2.24 0-2.987-.045a4.3 4.3 0 0 1-1.449-.224 2.433 2.433 0 0 1-.821-.56 2.245 2.245 0 0 1-.553-.859 4.164 4.164 0 0 1-.299-1.419c0-.747-.045-1.023-.045-2.987s0-2.24.045-2.987a4.14 4.14 0 0 1 .261-1.419 2.24 2.24 0 0 1 .59-.821c.227-.257.507-.461.821-.597a4.29 4.29 0 0 1 1.419-.254c.747 0 1.023-.045 2.987-.045s2.24 0 2.987.045c.474.005.944.091 1.389.254.339.126.644.331.889.597.245.229.436.51.56.821.166.455.252.935.254 1.419.037.747.045 1.023.045 2.987s-.007 2.24-.045 2.987zm-6.078-6.817a3.826 3.826 0 0 0-3.534 2.37 3.824 3.824 0 0 0 .835 4.171 3.83 3.83 0 0 0 6.246-4.18 3.831 3.831 0 0 0-3.547-2.362zm0 6.316a2.487 2.487 0 1 1 .003-4.975 2.487 2.487 0 0 1-.004 4.976z"/>
      <path stroke-width=".8" d="M4.8.4h22.4a4.4 4.4 0 0 1 4.4 4.4v22.4a4.4 4.4 0 0 1-4.4 4.4H4.8a4.4 4.4 0 0 1-4.4-4.4V4.8A4.4 4.4 0 0 1 4.8.4z"/>
    </symbol>
    <symbol id="social-youtube" viewBox="0 0 32 32">
      <path d="M20.532 10.5c-.748-.044-2.288-.088-4.62-.088h-.308c-2.244 0-3.74.044-4.488.132-1.012.088-1.716.352-2.112.704-.352.308-.616.88-.704 1.628-.044.484-.088 1.496-.088 3.036v.22c0 1.452.044 2.464.132 2.948.132.704.352 1.232.792 1.54.44.352 1.188.572 2.244.66.748.044 2.288.088 4.62.088h.308c2.244 0 3.74-.044 4.488-.132 1.012-.088 1.716-.352 2.112-.704.352-.308.616-.88.704-1.628.044-.484.088-1.496.088-3.036v-.22c0-1.452-.044-2.464-.132-2.948-.132-.704-.352-1.232-.792-1.54-.44-.352-1.188-.572-2.244-.66zm-1.716 5.412-4.84 2.904v-5.808l4.84 2.904z"/>
      <path stroke-width=".8" d="M4.8.4h22.4a4.4 4.4 0 0 1 4.4 4.4v22.4a4.4 4.4 0 0 1-4.4 4.4H4.8a4.4 4.4 0 0 1-4.4-4.4V4.8A4.4 4.4 0 0 1 4.8.4z"/>
    </symbol>
    <symbol id="icon-ellipse-services" viewBox="0 0 16 32">
      <path fill="#91afba" style="fill: var(--color1, #91afba)" opacity="0.6" d="M5.382 10.36c3.128 3.219 3.047 8.356-0.182 11.474s-8.383 3.036-11.511-0.183c-3.128-3.219-3.047-8.356 0.182-11.474s8.383-3.036 11.511 0.183z"></path>
    </symbol>
    <symbol id="header-x" viewBox="0 0 32 32">
      <path stroke-linecap="round" stroke-linejoin="round" stroke-width="1.733" d="M24 8 8 24M8 8l16 16"/>
    </symbol>
    <symbol id="header-burger" viewBox="0 0 32 32">
      <path d="M2.667 7.993c0-.733.595-1.327 1.327-1.327h10.68a1.326 1.326 0 0 1 0 2.654H3.994a1.326 1.326 0 0 1-1.327-1.327zm0 8.007c0-.733.595-1.327 1.327-1.327h24.013a1.326 1.326 0 0 1 0 2.654H3.994A1.326 1.326 0 0 1 2.667 16zm1.326 6.68a1.326 1.326 0 0 0 0 2.654h16.013a1.326 1.326 0 0 0 0-2.654H3.993z"/>
    </symbol>
    <symbol id="icon-arrow-right" viewBox="0 0 72 32">
      <path d="m50 0 22 16-22 16V18.771H0v-5.543h50V-.001z"/>
    </symbol>
    <symbol id="icon-arrow-left" viewBox="0 0 72 32">
      <path d="M22 0 0 16l22 16V18.771h50v-5.543H22V-.001z"/>
    </symbol>
    <symbol id="rent-arrow" viewBox="0 0 64 32">
      <path fill="#f6f5ef" style="fill: var(--color1, #f6f5ef)" d="M44.444 0.604l19.556 15.396-19.556 15.396v-12.729h-44.444v-5.333h44.444v-12.729z"></path>
    </symbol>
     <symbol id="close-x" viewBox="0 0 32 32">
      <path fill="none" stroke="#f6f5ef" style="stroke: var(--color1, #f6f5ef)" stroke-linejoin="round" stroke-linecap="round" stroke-miterlimit="4" stroke-width="2.0800" d="M24 8l-16 16"></path>
      <path fill="none" stroke="#f6f5ef" style="stroke: var(--color1, #f6f5ef)" stroke-linejoin="round" stroke-linecap="round" stroke-miterlimit="4" stroke-width="2.0800" d="M8 8l16 16"></path>
     </symbol>
    <symbol id="footer-facebook" viewBox="0 0 18 32">
      <path d="M14.45 5.602h2.924V.655a40.727 40.727 0 0 0-4.262-.218c-4.231 0-7.124 2.582-7.124 7.311v4.076H1.212v5.538h4.776v14.187h5.724V17.362h4.76l.716-5.538h-5.476V8.293c0-1.633.436-2.691 2.738-2.691z"/>
    </symbol>
    <symbol id="footer-instagram" viewBox="0 0 32 32">
      <path d="M23.983 6.229a1.794 1.794 0 0 0-1.758 2.141 1.794 1.794 0 0 0 2.443 1.306 1.79 1.79 0 0 0 1.106-1.656 1.792 1.792 0 0 0-1.792-1.792zm6.869 3.614a11.33 11.33 0 0 0-.687-3.629 7.38 7.38 0 0 0-1.732-2.643 7.01 7.01 0 0 0-2.643-1.717 10.905 10.905 0 0 0-3.629-.702c-1.583-.09-2.091-.09-6.152-.09s-4.57 0-6.152.09a10.905 10.905 0 0 0-3.629.702 7.135 7.135 0 0 0-2.643 1.717 7.01 7.01 0 0 0-1.717 2.643 10.905 10.905 0 0 0-.702 3.629c-.09 1.583-.09 2.091-.09 6.153s0 4.57.09 6.152c.026 1.241.263 2.468.702 3.629.365 1 .952 1.904 1.717 2.643a7.135 7.135 0 0 0 2.643 1.717c1.161.439 2.388.676 3.629.702 1.583.09 2.091.09 6.152.09s4.57 0 6.152-.09a10.905 10.905 0 0 0 3.629-.702c1-.365 1.904-.952 2.643-1.717a7.243 7.243 0 0 0 1.732-2.643 11.33 11.33 0 0 0 .687-3.629c0-1.583.09-2.091.09-6.152s0-4.57-.09-6.153zm-2.688 12.126a8.39 8.39 0 0 1-.508 2.778 4.556 4.556 0 0 1-1.12 1.717 4.763 4.763 0 0 1-1.717 1.12 8.39 8.39 0 0 1-2.778.508c-1.493.075-2.046.09-5.973.09s-4.48 0-5.973-.09a8.566 8.566 0 0 1-2.897-.448 4.885 4.885 0 0 1-1.643-1.12 4.48 4.48 0 0 1-1.105-1.717 8.25 8.25 0 0 1-.597-2.837c0-1.493-.09-2.046-.09-5.973s0-4.48.09-5.973a8.281 8.281 0 0 1 .523-2.837 4.482 4.482 0 0 1 1.18-1.643 4.7 4.7 0 0 1 1.643-1.195 8.58 8.58 0 0 1 2.837-.508c1.493 0 2.046-.09 5.973-.09s4.48 0 5.973.09a8.39 8.39 0 0 1 2.778.508 4.56 4.56 0 0 1 1.777 1.195c.489.459.872 1.02 1.12 1.643a8.37 8.37 0 0 1 .508 2.837c.075 1.493.09 2.046.09 5.973s-.015 4.48-.09 5.973zM16.008 8.335a7.667 7.667 0 0 0-7.067 4.739 7.66 7.66 0 0 0 10.017 9.997 7.657 7.657 0 0 0 4.726-7.077 7.645 7.645 0 0 0-7.675-7.66zm0 12.634a4.979 4.979 0 0 1-4.595-3.07 4.975 4.975 0 0 1 3.624-6.78 4.974 4.974 0 0 1 5.564 6.781 4.965 4.965 0 0 1-2.691 2.691 4.97 4.97 0 0 1-1.903.379z"/>
    </symbol>
    <symbol id="footer-youtube" viewBox="0 0 46 32">
      <path d="M35.806.285c-2.137-.126-6.537-.251-13.2-.251h-.88C15.315.034 11.04.16 8.903.411 6.012.662 4 1.417 2.869 2.422c-1.006.88-1.76 2.514-2.011 4.651-.126 1.383-.251 4.274-.251 8.674v.629c0 4.149.126 7.04.377 8.423.377 2.011 1.006 3.52 2.263 4.4 1.257 1.006 3.394 1.634 6.411 1.886 2.137.126 6.537.252 13.2.252h.88c6.411 0 10.686-.126 12.823-.377 2.891-.251 4.903-1.006 6.034-2.011 1.006-.88 1.76-2.514 2.011-4.651.126-1.383.251-4.274.251-8.674v-.629c0-4.149-.126-7.04-.377-8.423-.377-2.011-1.006-3.52-2.263-4.4C40.96 1.166 38.823.538 35.806.286zm-4.903 15.463-13.828 8.297V7.451l13.828 8.297z"/>
    </symbol>
    <symbol id="header-x" viewBox="0 0 32 32">
      <path stroke-linecap="round" stroke-linejoin="round" stroke-width="1.733" d="M24 8 8 24M8 8l16 16"/>
    </symbol>
    <symbol id="header-burger" viewBox="0 0 32 32">
      <path d="M2.667 7.993c0-.733.595-1.327 1.327-1.327h10.68a1.326 1.326 0 0 1 0 2.654H3.994a1.326 1.326 0 0 1-1.327-1.327zm0 8.007c0-.733.595-1.327 1.327-1.327h24.013a1.326 1.326 0 0 1 0 2.654H3.994A1.326 1.326 0 0 1 2.667 16zm1.326 6.68a1.326 1.326 0 0 0 0 2.654h16.013a1.326 1.326 0 0 0 0-2.654H3.993z"/>
    </symbol>
  </defs>
</svg>
